<svg id="white-horizontal" xmlns="http://www.w3.org/2000/svg" width="146.696" height="25" viewBox="0 0 146.696 25">
  <path id="Path_46285" data-name="Path 46285" d="M19.594.114H.565V3.9H19.594Z" transform="translate(-0.565 0.031)" fill="#fff"/>
  <path id="Path_46286" data-name="Path 46286" d="M15.614,8.123H.565v3.786H15.614Z" transform="translate(-0.565 2.412)" fill="#fff"/>
  <path id="Path_46287" data-name="Path 46287" d="M19.594,16.355H.565v3.786H19.594Z" transform="translate(-0.565 4.858)" fill="#fff"/>
  <path id="Path_46288" data-name="Path 46288" d="M100.874.114H81.846V3.9h19.029Z" transform="translate(23.591 0.031)" fill="#fff"/>
  <path id="Path_46289" data-name="Path 46289" d="M96.894,8.123H81.846v3.786H96.894Z" transform="translate(23.591 2.412)" fill="#fff"/>
  <path id="Path_46290" data-name="Path 46290" d="M100.874,16.355H81.846v3.786h19.029Z" transform="translate(23.591 4.858)" fill="#fff"/>
  <path id="Path_46291" data-name="Path 46291" d="M41.4.114H36.6l-6.165,8.2L24.266.114H19.46l8.5,11.456L18,24.968h4.757l7.621-10.194,7.67,10.194h4.854l-10.1-13.4Z" transform="translate(4.617 0.031)" fill="#fff"/>
  <path id="Path_46292" data-name="Path 46292" d="M104.488,21.182V.114h-3.932V24.968h16.989V21.182Z" transform="translate(29.151 0.031)" fill="#fff"/>
  <path id="Path_46293" data-name="Path 46293" d="M50.72,0,39.409,25h4.223L52.176,6.118,60.719,25h4.175L53.681,0Z" transform="translate(10.979 -0.002)" fill="#fff"/>
  <path id="Path_46294" data-name="Path 46294" d="M79.591,3.561A13.557,13.557,0,0,0,69.979.114H61.824V3.9h7.912c3.058,0,5.388.777,7.087,2.379a8.053,8.053,0,0,1,2.524,6.262A8.053,8.053,0,0,1,76.824,18.8a10.019,10.019,0,0,1-7.087,2.379H61.824v3.786h8.155a13.557,13.557,0,0,0,9.611-3.447,11.827,11.827,0,0,0,3.738-8.98A11.827,11.827,0,0,0,79.591,3.561Z" transform="translate(17.64 0.031)" fill="#fff"/>
</svg>
