<svg xmlns="http://www.w3.org/2000/svg" width="36.716" height="35.5" viewBox="0 0 36.716 35.5">
  <g id="Layer_17" transform="translate(-3.831 -2.167)">
    <path id="Path_1" data-name="Path 1" d="M36.673,2.417a.591.591,0,0,0-.592.592V36.825a.592.592,0,0,0,1.183,0V3.009A.591.591,0,0,0,36.673,2.417Z" transform="translate(-11.479)" fill="#209ebc" stroke="#209ebc" stroke-width="0.5"/>
    <path id="Path_2" data-name="Path 2" d="M43.518,16.615c-.136,0-.272,0-.411.009a9.291,9.291,0,0,0-1.478.189.592.592,0,0,0-.218,1.063,9.267,9.267,0,0,1-.538,15.512.592.592,0,0,0,.14,1.074,8.835,8.835,0,0,0,2.489.353q.207,0,.415-.009a9.1,9.1,0,0,0-.4-18.192ZM49.356,31.06a7.868,7.868,0,0,1-5.491,2.566q-.183.008-.363.008h0a7.864,7.864,0,0,1-.854-.046A10.454,10.454,0,0,0,43.2,17.805,7.916,7.916,0,0,1,49.356,31.06Z" transform="translate(-12.32 -5.799)" fill="#209ebc" stroke="#209ebc" stroke-width="0.5"/>
    <path id="Path_3" data-name="Path 3" d="M15.037,22.2A5.795,5.795,0,1,0,20.832,28,5.8,5.8,0,0,0,15.037,22.2Zm0,10.407A4.612,4.612,0,1,1,19.648,28,4.617,4.617,0,0,1,15.037,32.612Z" transform="translate(-2.517 -8.082)" fill="#209ebc" stroke="#209ebc" stroke-width="0.5"/>
    <path id="Path_4" data-name="Path 4" d="M18.63,19.563a.591.591,0,0,0,.592-.592V16.635a.592.592,0,1,0-1.183,0v2.337A.591.591,0,0,0,18.63,19.563Z" transform="translate(-6.109 -4.565)" fill="#209ebc" stroke="#209ebc" stroke-width="0.5"/>
    <path id="Path_5" data-name="Path 5" d="M18.63,42.006a.591.591,0,0,0-.592.592v2.337a.592.592,0,1,0,1.183,0V42.6A.591.591,0,0,0,18.63,42.006Z" transform="translate(-6.109 -17.17)" fill="#209ebc" stroke="#209ebc" stroke-width="0.5"/>
    <path id="Path_6" data-name="Path 6" d="M31.972,31H29.635a.592.592,0,1,0,0,1.183h2.337a.592.592,0,0,0,0-1.183Z" transform="translate(-11.604 -11.675)" fill="#209ebc" stroke="#209ebc" stroke-width="0.5"/>
    <path id="Path_7" data-name="Path 7" d="M6.6,31.592A.591.591,0,0,0,6.01,31H3.673a.592.592,0,0,0,0,1.183H6.01A.591.591,0,0,0,6.6,31.592Z" transform="translate(1 -11.675)" fill="#209ebc" stroke="#209ebc" stroke-width="0.5"/>
    <path id="Path_8" data-name="Path 8" d="M9.5,22.856a.592.592,0,1,0,.858-.815L8.749,20.348a.592.592,0,0,0-.858.816Z" transform="translate(-1.524 -6.605)" fill="#209ebc" stroke="#209ebc" stroke-width="0.5"/>
    <path id="Path_9" data-name="Path 9" d="M26.643,39.159a.592.592,0,0,0-.858.816L27.4,41.668a.592.592,0,1,0,.858-.815Z" transform="translate(-9.581 -15.578)" fill="#209ebc" stroke="#209ebc" stroke-width="0.5"/>
    <path id="Path_10" data-name="Path 10" d="M9.5,39.161,7.892,40.853a.591.591,0,1,0,.857.815l1.611-1.692a.591.591,0,1,0-.857-.815Z" transform="translate(-1.888 -15.579)" fill="#209ebc" stroke="#209ebc" stroke-width="0.5"/>
    <path id="Path_11" data-name="Path 11" d="M26.215,23.039a.59.59,0,0,0,.429-.184l1.611-1.694a.592.592,0,0,0-.858-.816l-1.611,1.694a.591.591,0,0,0,.021.836A.584.584,0,0,0,26.215,23.039Z" transform="translate(-9.582 -6.602)" fill="#209ebc" stroke="#209ebc" stroke-width="0.5"/>
  </g>
</svg>
